<?xml version="1.0" encoding="UTF-8"?>
<svg xmlns="http://www.w3.org/2000/svg" viewBox="0 0 400 400" role="img" aria-label="Tee Tie-Dye Magenta Cyan — AnimemomentsAnimeofficiel">
  <title>Tee Tie-Dye Magenta Cyan — AnimemomentsAnimeofficiel</title>
  <defs>
    <linearGradient id="guts51i" x1="0" y1="0" x2="1" y2="1">
      <stop offset="0%" stop-color="#e63946"/>
      <stop offset="55%" stop-color="#f1faee"/>
      <stop offset="100%" stop-color="#a8dadc"/>
    </linearGradient>
  </defs>
  <rect width="400" height="400" fill="url(#guts51i)"/>
  <g transform="rotate(7 200 200)" opacity="0.55">
    <circle cx="200" cy="200" r="60"  fill="none" stroke="#fff" stroke-opacity="0.18" stroke-width="2"/>
    <circle cx="200" cy="200" r="100" fill="none" stroke="#fff" stroke-opacity="0.14" stroke-width="2"/>
    <circle cx="200" cy="200" r="140" fill="none" stroke="#fff" stroke-opacity="0.10" stroke-width="2"/>
  </g>
  <circle cx="346.0" cy="200.0" r="10" fill="#fff" opacity="0.45"/><circle cx="69.5" cy="319.6" r="7" fill="#fff" opacity="0.45"/><circle cx="208.5" cy="102.4" r="4" fill="#fff" opacity="0.45"/><circle cx="278.5" cy="302.3" r="11" fill="#fff" opacity="0.45"/><circle cx="42.4" cy="172.2" r="8" fill="#fff" opacity="0.45"/><circle cx="268.3" cy="156.5" r="5" fill="#fff" opacity="0.45"/><circle cx="171.0" cy="308.2" r="12" fill="#fff" opacity="0.45"/><circle cx="134.0" cy="73.2" r="9" fill="#fff" opacity="0.45"/><circle cx="363.5" cy="259.5" r="6" fill="#fff" opacity="0.45"/><circle cx="112.2" cy="236.4" r="13" fill="#fff" opacity="0.45"/><circle cx="253.2" cy="85.8" r="10" fill="#fff" opacity="0.45"/><circle cx="247.2" cy="349.7" r="7" fill="#fff" opacity="0.45"/><circle cx="37.2" cy="106.0" r="4" fill="#fff" opacity="0.45"/><circle cx="306.4" cy="176.4" r="11" fill="#fff" opacity="0.45"/><circle cx="119.7" cy="314.7" r="8" fill="#fff" opacity="0.45"/><circle cx="177.7" cy="30.5" r="5" fill="#fff" opacity="0.45"/><circle cx="270.5" cy="259.1" r="12" fill="#fff" opacity="0.45"/><circle cx="77.1" cy="205.4" r="9" fill="#fff" opacity="0.45"/>
  <rect x="40" y="60" width="320" height="280" rx="14" fill="#0c0c14" opacity="0.78"/>
  <text x="200" y="200" text-anchor="middle" font-family="serif" font-weight="900" font-size="120" fill="#e63946">A</text>
  <text x="200" y="260" text-anchor="middle" font-family="Orbitron, sans-serif" font-size="14" letter-spacing="4" fill="#fff">APPAREL</text>
  <text x="200" y="300" text-anchor="middle" font-family="sans-serif" font-size="13" fill="#fff" opacity="0.9">Tee Tie-Dye Magenta Cyan</text>
  <text x="20" y="385" font-family="Orbitron, sans-serif" font-size="10" letter-spacing="3" fill="#fff" opacity="0.7">AnimemomentsAnimeofficiel · AM-035</text>
</svg>