<?xml version="1.0" encoding="UTF-8"?>
<svg xmlns="http://www.w3.org/2000/svg" viewBox="0 0 400 400" role="img" aria-label="Set Mini-Posters Episodes Cultes — AnimemomentsAnimeofficiel">
  <title>Set Mini-Posters Episodes Cultes — AnimemomentsAnimeofficiel</title>
  <defs>
    <linearGradient id="gzjrotz" x1="0" y1="0" x2="1" y2="1">
      <stop offset="0%" stop-color="#facc15"/>
      <stop offset="55%" stop-color="#ec4899"/>
      <stop offset="100%" stop-color="#1e293b"/>
    </linearGradient>
  </defs>
  <rect width="400" height="400" fill="url(#gzjrotz)"/>
  <g transform="rotate(-61 200 200)" opacity="0.55">
    <circle cx="200" cy="200" r="60"  fill="none" stroke="#fff" stroke-opacity="0.18" stroke-width="2"/>
    <circle cx="200" cy="200" r="100" fill="none" stroke="#fff" stroke-opacity="0.14" stroke-width="2"/>
    <circle cx="200" cy="200" r="140" fill="none" stroke="#fff" stroke-opacity="0.10" stroke-width="2"/>
  </g>
  <circle cx="369.0" cy="200.0" r="13" fill="#fff" opacity="0.45"/><circle cx="133.6" cy="260.8" r="10" fill="#fff" opacity="0.45"/><circle cx="210.5" cy="79.5" r="7" fill="#fff" opacity="0.45"/><circle cx="292.5" cy="320.6" r="4" fill="#fff" opacity="0.45"/><circle cx="19.8" cy="168.2" r="11" fill="#fff" opacity="0.45"/><circle cx="287.7" cy="144.1" r="8" fill="#fff" opacity="0.45"/><circle cx="165.1" cy="330.4" r="5" fill="#fff" opacity="0.45"/><circle cx="123.3" cy="52.8" r="12" fill="#fff" opacity="0.45"/><circle cx="281.8" cy="229.8" r="9" fill="#fff" opacity="0.45"/><circle cx="91.0" cy="245.2" r="6" fill="#fff" opacity="0.45"/><circle cx="263.0" cy="65.0" r="13" fill="#fff" opacity="0.45"/><circle cx="254.1" cy="371.7" r="10" fill="#fff" opacity="0.45"/><circle cx="112.5" cy="149.5" r="7" fill="#fff" opacity="0.45"/><circle cx="328.9" cy="171.4" r="4" fill="#fff" opacity="0.45"/><circle cx="106.5" cy="333.5" r="11" fill="#fff" opacity="0.45"/><circle cx="189.0" cy="116.7" r="8" fill="#fff" opacity="0.45"/><circle cx="288.1" cy="273.9" r="5" fill="#fff" opacity="0.45"/><circle cx="54.1" cy="206.4" r="12" fill="#fff" opacity="0.45"/>
  <rect x="40" y="60" width="320" height="280" rx="14" fill="#0c0c14" opacity="0.78"/>
  <text x="200" y="200" text-anchor="middle" font-family="serif" font-weight="900" font-size="120" fill="#facc15">P</text>
  <text x="200" y="260" text-anchor="middle" font-family="Orbitron, sans-serif" font-size="14" letter-spacing="4" fill="#fff">POSTER</text>
  <text x="200" y="300" text-anchor="middle" font-family="sans-serif" font-size="13" fill="#fff" opacity="0.9">Set Mini-Posters Episodes Cultes</text>
  <text x="20" y="385" font-family="Orbitron, sans-serif" font-size="10" letter-spacing="3" fill="#fff" opacity="0.7">AnimemomentsAnimeofficiel · AM-010</text>
</svg>