<?xml version="1.0" encoding="UTF-8"?>
<svg xmlns="http://www.w3.org/2000/svg" viewBox="0 0 400 400" role="img" aria-label="Comics One-Shot ÑLLÑ Origin — AnimemomentsAnimeofficiel">
  <title>Comics One-Shot ÑLLÑ Origin — AnimemomentsAnimeofficiel</title>
  <defs>
    <linearGradient id="gyf4zyi" x1="0" y1="0" x2="1" y2="1">
      <stop offset="0%" stop-color="#e63946"/>
      <stop offset="55%" stop-color="#f1faee"/>
      <stop offset="100%" stop-color="#a8dadc"/>
    </linearGradient>
  </defs>
  <rect width="400" height="400" fill="url(#gyf4zyi)"/>
  <g transform="rotate(20 200 200)" opacity="0.55">
    <circle cx="200" cy="200" r="60"  fill="none" stroke="#fff" stroke-opacity="0.18" stroke-width="2"/>
    <circle cx="200" cy="200" r="100" fill="none" stroke="#fff" stroke-opacity="0.14" stroke-width="2"/>
    <circle cx="200" cy="200" r="140" fill="none" stroke="#fff" stroke-opacity="0.10" stroke-width="2"/>
  </g>
  <circle cx="290.0" cy="200.0" r="4" fill="#fff" opacity="0.45"/><circle cx="110.8" cy="281.7" r="11" fill="#fff" opacity="0.45"/><circle cx="213.2" cy="48.6" r="8" fill="#fff" opacity="0.45"/><circle cx="311.4" cy="345.2" r="5" fill="#fff" opacity="0.45"/><circle cx="97.6" cy="181.9" r="12" fill="#fff" opacity="0.45"/><circle cx="313.9" cy="127.5" r="9" fill="#fff" opacity="0.45"/><circle cx="157.0" cy="360.3" r="6" fill="#fff" opacity="0.45"/><circle cx="159.8" cy="122.8" r="13" fill="#fff" opacity="0.45"/><circle cx="310.9" cy="240.4" r="10" fill="#fff" opacity="0.45"/><circle cx="62.3" cy="257.0" r="7" fill="#fff" opacity="0.45"/><circle cx="276.1" cy="36.9" r="4" fill="#fff" opacity="0.45"/><circle cx="230.4" cy="296.3" r="11" fill="#fff" opacity="0.45"/><circle cx="85.7" cy="134.0" r="8" fill="#fff" opacity="0.45"/><circle cx="359.1" cy="164.7" r="5" fill="#fff" opacity="0.45"/><circle cx="151.8" cy="268.8" r="12" fill="#fff" opacity="0.45"/><circle cx="185.0" cy="86.0" r="9" fill="#fff" opacity="0.45"/><circle cx="311.8" cy="293.8" r="6" fill="#fff" opacity="0.45"/><circle cx="23.2" cy="207.7" r="13" fill="#fff" opacity="0.45"/>
  <rect x="40" y="60" width="320" height="280" rx="14" fill="#0c0c14" opacity="0.78"/>
  <text x="200" y="200" text-anchor="middle" font-family="serif" font-weight="900" font-size="120" fill="#e63946">M</text>
  <text x="200" y="260" text-anchor="middle" font-family="Orbitron, sans-serif" font-size="14" letter-spacing="4" fill="#fff">MANGA</text>
  <text x="200" y="300" text-anchor="middle" font-family="sans-serif" font-size="13" fill="#fff" opacity="0.9">Comics One-Shot ÑLLÑ Origin</text>
  <text x="20" y="385" font-family="Orbitron, sans-serif" font-size="10" letter-spacing="3" fill="#fff" opacity="0.7">AnimemomentsAnimeofficiel · AM-066</text>
</svg>